<svg width="34" height="35" viewBox="0 0 34 35" fill="none" xmlns="http://www.w3.org/2000/svg">
<path d="M27.6366 6.045H7.0859C6.26834 6.045 5.48427 6.38161 4.90617 6.98079C4.32807 7.57997 4.0033 8.39263 4.0033 9.24V24.15C4.0033 24.9974 4.32807 25.81 4.90617 26.4092C5.48427 27.0084 6.26834 27.345 7.0859 27.345H27.6366C28.4541 27.345 29.2382 27.0084 29.8163 26.4092C30.3944 25.81 30.7192 24.9974 30.7192 24.15V9.24C30.7192 8.39263 30.3944 7.57997 29.8163 6.98079C29.2382 6.38161 28.4541 6.045 27.6366 6.045ZM28.6641 24.15C28.6641 24.4325 28.5558 24.7033 28.3631 24.9031C28.1704 25.1028 27.9091 25.215 27.6366 25.215H7.0859C6.81338 25.215 6.55202 25.1028 6.35932 24.9031C6.16662 24.7033 6.05836 24.4325 6.05836 24.15V9.24C6.05836 8.95754 6.16662 8.68666 6.35932 8.48693C6.55202 8.2872 6.81338 8.175 7.0859 8.175H27.6366C27.9091 8.175 28.1704 8.2872 28.3631 8.48693C28.5558 8.68666 28.6641 8.95754 28.6641 9.24V24.15ZM22.4989 30.54C22.4989 30.8225 22.3906 31.0933 22.1979 31.2931C22.0052 31.4928 21.7439 31.605 21.4714 31.605H13.2511C12.9786 31.605 12.7172 31.4928 12.5245 31.2931C12.3318 31.0933 12.2236 30.8225 12.2236 30.54C12.2236 30.2575 12.3318 29.9867 12.5245 29.7869C12.7172 29.5872 12.9786 29.475 13.2511 29.475H21.4714C21.7439 29.475 22.0052 29.5872 22.1979 29.7869C22.3906 29.9867 22.4989 30.2575 22.4989 30.54ZM22.0416 15.8084L15.8764 11.5484C15.7217 11.4414 15.5417 11.3799 15.3559 11.3706C15.17 11.3612 14.9852 11.4044 14.8212 11.4954C14.6571 11.5864 14.52 11.7219 14.4245 11.8874C14.3289 12.0529 14.2785 12.2421 14.2786 12.435V20.955C14.2785 21.1479 14.3289 21.3371 14.4245 21.5026C14.52 21.6681 14.6571 21.8036 14.8212 21.8946C14.9852 21.9856 15.17 22.0288 15.3559 22.0194C15.5417 22.0101 15.7217 21.9486 15.8764 21.8416L22.0416 17.5816C22.1826 17.4844 22.2982 17.3526 22.3781 17.1979C22.4581 17.0432 22.4999 16.8705 22.4999 16.695C22.4999 16.5195 22.4581 16.3468 22.3781 16.1921C22.2982 16.0374 22.1826 15.9056 22.0416 15.8084ZM16.3337 18.9648V14.4319L19.6192 16.695L16.3337 18.9648Z" fill="#313234"/>
</svg>
