<svg width="31" height="28" viewBox="0 0 31 28" fill="none" xmlns="http://www.w3.org/2000/svg">
<path d="M22.2589 0C19.4933 0 17.0719 1.29531 15.5625 3.48478C14.0531 1.29531 11.6317 0 8.86608 0C6.66459 0.00269797 4.55398 0.956398 2.9973 2.65185C1.44062 4.34731 0.564984 6.64607 0.5625 9.04381C0.5625 19.2546 14.4629 27.5194 15.0549 27.8608C15.2109 27.9522 15.3853 28 15.5625 28C15.7397 28 15.9141 27.9522 16.0701 27.8608C16.6621 27.5194 30.5625 19.2546 30.5625 9.04381C30.56 6.64607 29.6844 4.34731 28.1277 2.65185C26.5711 0.956398 24.4604 0.00269797 22.2589 0ZM15.5625 25.4977C13.1169 23.9457 2.70536 16.8755 2.70536 9.04381C2.70748 7.26492 3.35724 5.5596 4.51214 4.30173C5.66703 3.04388 7.23283 2.3362 8.86608 2.33389C11.471 2.33389 13.6581 3.84508 14.5714 6.27236C14.6522 6.48633 14.7895 6.6694 14.9659 6.79824C15.1424 6.92707 15.3501 6.99587 15.5625 6.99587C15.7749 6.99587 15.9826 6.92707 16.1591 6.79824C16.3355 6.6694 16.4728 6.48633 16.5536 6.27236C17.4669 3.8407 19.654 2.33389 22.2589 2.33389C23.8922 2.3362 25.4579 3.04388 26.6129 4.30173C27.7678 5.5596 28.4176 7.26492 28.4196 9.04381C28.4196 16.8638 18.0053 23.9442 15.5625 25.4977Z" fill="#11B0C8"/>
</svg>
