<svg width="41" height="40" viewBox="0 0 41 40" fill="none" xmlns="http://www.w3.org/2000/svg">
<path d="M28.5078 5C25.2006 5 22.305 6.3875 20.5 8.73281C18.695 6.3875 15.7994 5 12.4922 5C9.85958 5.00289 7.33565 6.02447 5.47412 7.8406C3.61258 9.65673 2.56547 12.1191 2.5625 14.6875C2.5625 25.625 19.1851 34.4781 19.893 34.8438C20.0796 34.9417 20.2881 34.9929 20.5 34.9929C20.7119 34.9929 20.9204 34.9417 21.107 34.8438C21.8149 34.4781 38.4375 25.625 38.4375 14.6875C38.4345 12.1191 37.3874 9.65673 35.5259 7.8406C33.6644 6.02447 31.1404 5.00289 28.5078 5ZM20.5 32.3125C17.5755 30.65 5.125 23.0766 5.125 14.6875C5.12754 12.782 5.90454 10.9553 7.28561 9.60791C8.66667 8.26053 10.5391 7.50248 12.4922 7.5C15.6072 7.5 18.2226 9.11875 19.3148 11.7188C19.4114 11.948 19.5756 12.1441 19.7866 12.2821C19.9976 12.4201 20.246 12.4938 20.5 12.4938C20.754 12.4938 21.0024 12.4201 21.2134 12.2821C21.4244 12.1441 21.5886 11.948 21.6852 11.7188C22.7774 9.11406 25.3928 7.5 28.5078 7.5C30.4609 7.50248 32.3333 8.26053 33.7144 9.60791C35.0955 10.9553 35.8725 12.782 35.875 14.6875C35.875 23.0641 23.4212 30.6484 20.5 32.3125Z" fill="#11B0C8"/>
</svg>
