<svg width="31" height="28" viewBox="0 0 31 28" fill="none" xmlns="http://www.w3.org/2000/svg">
<path d="M13.4528 24.9904L13.4517 24.9894C9.57448 21.4735 6.41659 18.6049 4.21925 15.9166C2.03015 13.2384 0.872925 10.8309 0.872925 8.25C0.872925 4.03011 4.16624 0.75 8.37292 0.75C10.7562 0.75 13.056 1.86334 14.5538 3.60846L15.1229 4.27157L15.6921 3.60846C17.1898 1.86334 19.4897 0.75 21.8729 0.75C26.0796 0.75 29.3729 4.03011 29.3729 8.25C29.3729 10.8309 28.2157 13.2384 26.0266 15.9166C23.8293 18.6049 20.6714 21.4735 16.7941 24.9894L16.793 24.9904L15.1229 26.5108L13.4528 24.9904Z" stroke="#309CFF" stroke-width="1.5"/>
</svg>
