<svg width="31" height="28" viewBox="0 0 31 28" fill="none" xmlns="http://www.w3.org/2000/svg">
<path d="M13.4529 24.9904L13.4518 24.9894C9.57455 21.4735 6.41666 18.6049 4.21931 15.9166C2.03021 13.2384 0.872986 10.8309 0.872986 8.25C0.872986 4.03011 4.16631 0.75 8.37299 0.75C10.7563 0.75 13.0561 1.86334 14.5539 3.60846L15.123 4.27157L15.6921 3.60846C17.1899 1.86334 19.4897 0.75 21.873 0.75C26.0797 0.75 29.373 4.03011 29.373 8.25C29.373 10.8309 28.2158 13.2384 26.0267 15.9166C23.8293 18.6049 20.6714 21.4735 16.7942 24.9894L16.7931 24.9904L15.123 26.5108L13.4529 24.9904Z" fill="#2D0E6C" stroke="#309CFF" stroke-width="1.5"/>
</svg>
