<svg width="316" height="62" viewBox="0 0 316 62" fill="none" xmlns="http://www.w3.org/2000/svg">
<g filter="url(#filter0_dd_93_6)">
<rect x="2" y="2" width="312" height="56" rx="4" fill="#E3F2FD"/>
</g>
<path fill-rule="evenodd" clip-rule="evenodd" d="M23.6886 23V25H42.2788V23H23.6886ZM30.9181 35H35.0493V33H30.9181V35ZM39.1804 30H26.787V28H39.1804V30Z" fill="black" fill-opacity="0.54"/>
<path d="M90.4609 33.6826H86.6055L85.7988 36H84.001L87.7607 26.0469H89.3125L93.0791 36H91.2744L90.4609 33.6826ZM87.0908 32.2881H89.9756L88.5332 28.1592L87.0908 32.2881ZM95.4639 36V26.0469H98.4033C99.2829 26.0469 100.062 26.2428 100.741 26.6348C101.425 27.0267 101.953 27.5827 102.327 28.3027C102.701 29.0228 102.888 29.8477 102.888 30.7773V31.2764C102.888 32.2197 102.699 33.0492 102.32 33.7646C101.947 34.4801 101.411 35.0316 100.714 35.4189C100.021 35.8063 99.2259 36 98.3281 36H95.4639ZM97.1934 27.4414V34.6191H98.3213C99.2282 34.6191 99.9232 34.3366 100.406 33.7715C100.894 33.2018 101.142 32.3861 101.151 31.3242V30.7705C101.151 29.6904 100.917 28.8656 100.447 28.2959C99.9779 27.7262 99.2965 27.4414 98.4033 27.4414H97.1934ZM109.217 33.833L111.746 26.0469H113.646L110.064 36H108.39L104.821 26.0469H106.715L109.217 33.833ZM121.076 33.6826H117.221L116.414 36H114.616L118.376 26.0469H119.928L123.694 36H121.89L121.076 33.6826ZM117.706 32.2881H120.591L119.148 28.1592L117.706 32.2881ZM133.975 36H132.245L127.809 28.9385V36H126.079V26.0469H127.809L132.259 33.1357V26.0469H133.975V36ZM144.863 32.7598C144.763 33.8216 144.371 34.651 143.688 35.248C143.004 35.8405 142.095 36.1367 140.96 36.1367C140.167 36.1367 139.467 35.9499 138.861 35.5762C138.26 35.1979 137.795 34.6624 137.467 33.9697C137.139 33.277 136.968 32.4727 136.954 31.5566V30.627C136.954 29.6882 137.12 28.861 137.453 28.1455C137.786 27.43 138.262 26.8786 138.882 26.4912C139.506 26.1038 140.226 25.9102 141.042 25.9102C142.14 25.9102 143.024 26.2087 143.694 26.8057C144.364 27.4027 144.754 28.2458 144.863 29.335H143.141C143.059 28.6195 142.849 28.1045 142.512 27.79C142.179 27.471 141.689 27.3115 141.042 27.3115C140.29 27.3115 139.711 27.5872 139.306 28.1387C138.905 28.6855 138.7 29.4899 138.69 30.5518V31.4336C138.69 32.5091 138.882 33.3294 139.265 33.8945C139.652 34.4596 140.217 34.7422 140.96 34.7422C141.639 34.7422 142.149 34.5895 142.491 34.2842C142.833 33.9788 143.049 33.4707 143.141 32.7598H144.863ZM153.482 31.5566H149.395V34.6191H154.173V36H147.665V26.0469H154.125V27.4414H149.395V30.1895H153.482V31.5566ZM156.831 36V26.0469H159.771C160.65 26.0469 161.429 26.2428 162.108 26.6348C162.792 27.0267 163.321 27.5827 163.694 28.3027C164.068 29.0228 164.255 29.8477 164.255 30.7773V31.2764C164.255 32.2197 164.066 33.0492 163.688 33.7646C163.314 34.4801 162.778 35.0316 162.081 35.4189C161.388 35.8063 160.593 36 159.695 36H156.831ZM158.561 27.4414V34.6191H159.688C160.595 34.6191 161.29 34.3366 161.773 33.7715C162.261 33.2018 162.509 32.3861 162.519 31.3242V30.7705C162.519 29.6904 162.284 28.8656 161.814 28.2959C161.345 27.7262 160.664 27.4414 159.771 27.4414H158.561ZM177.699 31.7822H173.693V36H171.964V26.0469H178.287V27.4414H173.693V30.4014H177.699V31.7822ZM182.736 36H181.014V26.0469H182.736V36ZM187.842 34.6191H192.36V36H186.112V26.0469H187.842V34.6191ZM200.72 27.4414H197.616V36H195.9V27.4414H192.824V26.0469H200.72V27.4414ZM209.1 31.5566H205.012V34.6191H209.79V36H203.282V26.0469H209.742V27.4414H205.012V30.1895H209.1V31.5566ZM216.105 32.165H214.178V36H212.448V26.0469H215.948C217.097 26.0469 217.983 26.3044 218.607 26.8193C219.232 27.3343 219.544 28.0794 219.544 29.0547C219.544 29.7201 219.382 30.2783 219.059 30.7295C218.74 31.1761 218.293 31.5202 217.719 31.7617L219.954 35.9111V36H218.102L216.105 32.165ZM214.178 30.7773H215.955C216.538 30.7773 216.994 30.6315 217.322 30.3398C217.65 30.0436 217.814 29.6403 217.814 29.1299C217.814 28.5967 217.662 28.1842 217.356 27.8926C217.056 27.6009 216.604 27.4505 216.003 27.4414H214.178V30.7773ZM227.637 33.4365C227.637 32.999 227.482 32.6618 227.172 32.4248C226.867 32.1878 226.313 31.9486 225.511 31.707C224.709 31.4655 224.071 31.1966 223.597 30.9004C222.69 30.3307 222.236 29.5879 222.236 28.6719C222.236 27.8698 222.562 27.209 223.214 26.6895C223.87 26.1699 224.72 25.9102 225.764 25.9102C226.456 25.9102 227.074 26.0378 227.616 26.293C228.159 26.5482 228.585 26.9128 228.895 27.3867C229.204 27.8561 229.359 28.3779 229.359 28.9521H227.637C227.637 28.4326 227.473 28.027 227.145 27.7354C226.821 27.4391 226.356 27.291 225.75 27.291C225.185 27.291 224.745 27.4118 224.431 27.6533C224.121 27.8949 223.966 28.2321 223.966 28.665C223.966 29.0296 224.134 29.335 224.472 29.5811C224.809 29.8226 225.365 30.0596 226.14 30.292C226.914 30.5199 227.536 30.7819 228.006 31.0781C228.475 31.3698 228.819 31.707 229.038 32.0898C229.257 32.4681 229.366 32.9124 229.366 33.4229C229.366 34.2523 229.047 34.9131 228.409 35.4053C227.776 35.8929 226.914 36.1367 225.825 36.1367C225.105 36.1367 224.442 36.0046 223.836 35.7402C223.234 35.4714 222.765 35.1022 222.428 34.6328C222.095 34.1634 221.929 33.6165 221.929 32.9922H223.658C223.658 33.5573 223.845 33.9948 224.219 34.3047C224.592 34.6146 225.128 34.7695 225.825 34.7695C226.427 34.7695 226.878 34.6488 227.179 34.4072C227.484 34.1611 227.637 33.8376 227.637 33.4365Z" fill="#2196F3"/>
<defs>
<filter id="filter0_dd_93_6" x="0" y="0" width="316" height="62" filterUnits="userSpaceOnUse" color-interpolation-filters="sRGB">
<feFlood flood-opacity="0" result="BackgroundImageFix"/>
<feColorMatrix in="SourceAlpha" type="matrix" values="0 0 0 0 0 0 0 0 0 0 0 0 0 0 0 0 0 0 127 0" result="hardAlpha"/>
<feOffset dy="2"/>
<feGaussianBlur stdDeviation="1"/>
<feColorMatrix type="matrix" values="0 0 0 0 0 0 0 0 0 0 0 0 0 0 0 0 0 0 0.24 0"/>
<feBlend mode="normal" in2="BackgroundImageFix" result="effect1_dropShadow_93_6"/>
<feColorMatrix in="SourceAlpha" type="matrix" values="0 0 0 0 0 0 0 0 0 0 0 0 0 0 0 0 0 0 127 0" result="hardAlpha"/>
<feOffset/>
<feGaussianBlur stdDeviation="1"/>
<feColorMatrix type="matrix" values="0 0 0 0 0 0 0 0 0 0 0 0 0 0 0 0 0 0 0.12 0"/>
<feBlend mode="normal" in2="effect1_dropShadow_93_6" result="effect2_dropShadow_93_6"/>
<feBlend mode="normal" in="SourceGraphic" in2="effect2_dropShadow_93_6" result="shape"/>
</filter>
</defs>
</svg>
